<svg width="36" height="40" viewBox="0 0 36 40" fill="none" xmlns="http://www.w3.org/2000/svg">
<path d="M11.65 28.5C10.2833 28.5 9.13333 28.0333 8.2 27.1C7.26667 26.1667 6.8 25.0167 6.8 23.65C6.8 22.2833 7.26667 21.1333 8.2 20.2C9.13333 19.2667 10.2833 18.8 11.65 18.8C13.0167 18.8 14.1667 19.2667 15.1 20.2C16.0333 21.1333 16.5 22.2833 16.5 23.65C16.5 25.0167 16.0333 26.1667 15.1 27.1C14.1667 28.0333 13.0167 28.5 11.65 28.5ZM3 40C2.2 40 1.5 39.7 0.9 39.1C0.3 38.5 0 37.8 0 37V6C0 5.2 0.3 4.5 0.9 3.9C1.5 3.3 2.2 3 3 3H6.25V0H9.5V3H26.5V0H29.75V3H33C33.8 3 34.5 3.3 35.1 3.9C35.7 4.5 36 5.2 36 6V37C36 37.8 35.7 38.5 35.1 39.1C34.5 39.7 33.8 40 33 40H3ZM3 37H33V15.5H3V37ZM3 12.5H33V6H3V12.5ZM3 12.5V6V12.5Z" fill="white"/>
</svg>
