<svg width="32" height="36" viewBox="0 0 32 36" fill="none" xmlns="http://www.w3.org/2000/svg">
<path d="M0 36V12L16 0L32 12V36H0ZM3 13.5V31.55C4.8 29.95 6.775 28.7083 8.925 27.825C11.075 26.9417 13.4167 26.5 15.95 26.5C18.5167 26.5 20.8833 26.95 23.05 27.85C25.2167 28.75 27.2 30 29 31.6V13.5L16 3.75L3 13.5ZM16 23.5C14.5 23.5 13.2083 22.9583 12.125 21.875C11.0417 20.7917 10.5 19.5 10.5 18C10.5 16.4667 11.0417 15.1667 12.125 14.1C13.2083 13.0333 14.5 12.5 16 12.5C17.5333 12.5 18.8333 13.0333 19.9 14.1C20.9667 15.1667 21.5 16.4667 21.5 18C21.5 19.5 20.9667 20.7917 19.9 21.875C18.8333 22.9583 17.5333 23.5 16 23.5ZM16 20.5C16.7 20.5 17.2917 20.25 17.775 19.75C18.2583 19.25 18.5 18.6667 18.5 18C18.5 17.3 18.2583 16.7083 17.775 16.225C17.2917 15.7417 16.7 15.5 16 15.5C15.3333 15.5 14.75 15.7417 14.25 16.225C13.75 16.7083 13.5 17.3 13.5 18C13.5 18.6667 13.75 19.25 14.25 19.75C14.75 20.25 15.3333 20.5 16 20.5ZM5.9 33H26.05C24.6167 31.8667 23.05 31 21.35 30.4C19.65 29.8 17.85 29.5 15.95 29.5C14.05 29.5 12.2583 29.8 10.575 30.4C8.89167 31 7.33333 31.8667 5.9 33Z" fill="white"/>
</svg>
