<svg width="36" height="35" viewBox="0 0 36 35" fill="none" xmlns="http://www.w3.org/2000/svg">
<path d="M10 35V27H26V35H10ZM0 25.5V16.35C0 15.9167 0.0833333 15.5 0.25 15.1C0.416667 14.7 0.666667 14.3667 1 14.1L16 0.799999C16.2667 0.533333 16.575 0.341666 16.925 0.224999C17.275 0.108332 17.6333 0.0499992 18 0.0499992C18.3667 0.0499992 18.725 0.108332 19.075 0.224999C19.425 0.341666 19.7333 0.533333 20 0.799999L24 4.35L0 25.5ZM3 35C2.16667 35 1.45833 34.7083 0.875 34.125C0.291667 33.5417 0 32.8333 0 32V28.2L8 21.1V35H3ZM28 35V18.6L19.45 11L25.5 5.65L35 14.1C35.3333 14.4 35.5833 14.7417 35.75 15.125C35.9167 15.5083 36 15.9167 36 16.35V32C36 32.8333 35.7083 33.5417 35.125 34.125C34.5417 34.7083 33.8333 35 33 35H28Z" fill="white"/>
</svg>
