<svg width="124" height="60" viewBox="0 0 124 60" fill="none" xmlns="http://www.w3.org/2000/svg">
<path fill-rule="evenodd" clip-rule="evenodd" d="M62.367 2.6C62.367 3.82855 61.5262 4.85809 60.3959 5.12984L60.3798 8.70068V8.7027L60.3776 10.6507L60.3754 12.5997V12.6002L60.3769 15.2129C63.4796 15.3517 66.2959 16.6073 68.4439 18.5928L76.9577 9.96393C76.7162 9.56742 76.5771 9.10021 76.5771 8.59999C76.5771 7.16404 77.7254 6 79.1424 6C80.5597 6 81.7081 7.16404 81.7081 8.59999C81.7081 10.036 80.5597 11.2 79.1424 11.2C78.6481 11.2 78.1864 11.0583 77.795 10.8128L69.2812 19.4414C71.1966 21.569 72.4236 24.3437 72.606 27.404H73.7646H75.9846H84.5936C84.9254 26.3574 85.8938 25.6 87.037 25.6C88.4539 25.6 89.6026 26.7641 89.6026 28.2C89.6026 29.6359 88.4539 30.8 87.037 30.8C85.7527 30.8 84.689 29.844 84.5011 28.596H75.9846H73.7646H72.6238C72.5324 31.6923 71.3726 34.5166 69.5052 36.7032L77.7131 45.0203C78.0298 44.8784 78.3799 44.8001 78.7478 44.8001C80.1648 44.8001 81.3135 45.964 81.3135 47.4C81.3135 48.836 80.1648 49.9999 78.7478 49.9999C77.3309 49.9999 76.1821 48.836 76.1821 47.4C76.1821 46.775 76.3995 46.202 76.7623 45.7534L68.6897 37.5739C66.4732 39.7327 63.4927 41.0921 60.2 41.1938V43.8V45.7001V47.5999V54.8706C61.3295 55.1428 62.1697 56.1719 62.1697 57.4001C62.1697 58.8362 61.021 60 59.604 60C58.187 60 57.0383 58.8362 57.0383 57.4001C57.0383 56.1719 57.8784 55.1428 59.0079 54.8706V47.5999V45.7001V43.8V41.1755C56.0401 40.9919 53.3449 39.786 51.261 37.9007L43.1102 46.1595C43.308 46.5282 43.4205 46.9506 43.4205 47.4C43.4205 48.836 42.2718 49.9999 40.8548 49.9999C39.4378 49.9999 38.2891 48.836 38.2891 47.4C38.2891 45.964 39.4378 44.8001 40.8548 44.8001C41.3989 44.8001 41.9035 44.9718 42.3186 45.2642L50.4147 37.0611C48.362 34.8291 47.0753 31.8641 46.9788 28.596H43.6178H41.3975H39.1772H35.1018C34.9136 29.844 33.8498 30.8 32.5657 30.8C31.1487 30.8 30 29.6359 30 28.2C30 26.7641 31.1487 25.6 32.5657 25.6C33.7087 25.6 34.6771 26.3574 35.0089 27.404H39.1772H41.3975H43.6178H46.9966C47.1803 24.3221 48.4235 21.5298 50.3621 19.3965L41.8563 10.7817C41.4545 11.0463 40.975 11.2 40.4601 11.2C39.0431 11.2 37.8944 10.036 37.8944 8.59999C37.8944 7.16404 39.0431 6 40.4601 6C41.8771 6 43.0258 7.16404 43.0258 8.59999C43.0258 9.07927 42.8978 9.52828 42.6746 9.91383L51.2034 18.5518C53.3362 16.5988 56.1197 15.3617 59.1848 15.2147L59.1834 12.6003V12.5993L59.1855 10.6493L59.1877 8.69932V8.6973L59.2038 5.12913C58.075 4.85627 57.2356 3.82749 57.2356 2.6C57.2356 1.16407 58.3843 0 59.8013 0C61.2183 0 62.367 1.16407 62.367 2.6ZM70.9554 28.596C70.866 31.2259 69.8909 33.6278 68.3224 35.5046L66.1418 33.2952C67.1626 31.9924 67.8007 30.3679 67.8838 28.596H70.9554ZM59.8013 36.4C61.9437 36.4 63.8916 35.5563 65.3392 34.1789L67.5101 36.3787C65.5065 38.3186 62.7912 39.51 59.8013 39.51C56.9821 39.51 54.407 38.4507 52.4425 36.7035L54.6192 34.498C56.0229 35.6855 57.8298 36.4 59.8013 36.4ZM51.5428 20.5923C49.9044 22.4176 48.8473 24.7883 48.6678 27.404H51.7472C51.9143 25.646 52.6292 24.0503 53.7168 22.7942L51.5428 20.5923ZM54.5605 21.9521L52.3847 19.7483C54.2133 18.0992 56.5807 17.0504 59.1858 16.9069L59.1875 20.0232C57.4287 20.1569 55.8266 20.8604 54.5605 21.9521ZM57.8771 2.6C57.8771 3.67696 58.7386 4.54999 59.8013 4.54999C60.8641 4.54999 61.7256 3.67696 61.7256 2.6C61.7256 1.52304 60.8641 0.649999 59.8013 0.649999C58.7386 0.649999 57.8771 1.52304 57.8771 2.6ZM60.3796 20.0206L60.3778 16.9048C63.0199 17.0411 65.4194 18.1084 67.2633 19.7894L65.0891 21.9929C63.8073 20.8705 62.1742 20.149 60.3796 20.0206ZM70.9347 27.404C70.7567 24.8101 69.7157 22.4571 68.1006 20.6379L65.9265 22.8414C66.9912 24.0902 67.6904 25.668 67.8554 27.404H70.9347ZM51.5949 35.8653C49.8431 33.9404 48.7425 31.3976 48.6474 28.596H51.7188C51.81 30.5392 52.5687 32.3052 53.7675 33.6639L51.5949 35.8653ZM59.8013 35.334C55.9133 35.334 52.7615 32.14 52.7615 28.2C52.7615 24.26 55.9133 21.066 59.8013 21.066C63.6893 21.066 66.8412 24.26 66.8412 28.2C66.8412 32.14 63.6893 35.334 59.8013 35.334ZM77.2184 8.59999C77.2184 9.67697 78.0799 10.55 79.1424 10.55C80.2053 10.55 81.0668 9.67697 81.0668 8.59999C81.0668 7.52305 80.2053 6.64999 79.1424 6.64999C78.0799 6.64999 77.2184 7.52305 77.2184 8.59999ZM87.037 30.15C85.9744 30.15 85.1126 29.2769 85.1126 28.2C85.1126 27.123 85.9744 26.25 87.037 26.25C88.0995 26.25 88.9613 27.123 88.9613 28.2C88.9613 29.2769 88.0995 30.15 87.037 30.15ZM38.5358 8.59999C38.5358 9.67697 39.3973 10.55 40.4601 10.55C41.5228 10.55 42.3843 9.67697 42.3843 8.59999C42.3843 7.52305 41.5228 6.64999 40.4601 6.64999C39.3973 6.64999 38.5358 7.52305 38.5358 8.59999ZM32.5657 30.15C31.5029 30.15 30.6414 29.2769 30.6414 28.2C30.6414 27.123 31.5029 26.25 32.5657 26.25C33.6284 26.25 34.4899 27.123 34.4899 28.2C34.4899 29.2769 33.6284 30.15 32.5657 30.15ZM38.9305 47.4C38.9305 48.4768 39.792 49.3498 40.8548 49.3498C41.9175 49.3498 42.779 48.4768 42.779 47.4C42.779 46.3232 41.9175 45.4498 40.8548 45.4498C39.792 45.4498 38.9305 46.3232 38.9305 47.4ZM59.604 59.3499C58.5412 59.3499 57.6797 58.477 57.6797 57.4001C57.6797 56.3233 58.5412 55.4499 59.604 55.4499C60.6667 55.4499 61.5282 56.3233 61.5282 57.4001C61.5282 58.477 60.6667 59.3499 59.604 59.3499ZM78.7478 49.3498C77.6853 49.3498 76.8234 48.4768 76.8234 47.4C76.8234 46.3232 77.6853 45.4498 78.7478 45.4498C79.8103 45.4498 80.6722 46.3232 80.6722 47.4C80.6722 48.4768 79.8103 49.3498 78.7478 49.3498Z" fill="#18709B" fill-opacity="0.6"/>
<path d="M9.74077 31.652L10.1548 35.072H0.902774L1.02877 20.618L4.88077 20.852L4.68277 31.598L9.74077 31.652ZM20.688 25.208L20.814 35.036L18.222 35L17.916 34.586L17.664 34.982L11.868 34.874L10.518 33.956L10.842 29.258L11.886 28.538L16.926 28.448L16.98 27.224L14.424 27.062L14.118 27.71L10.824 27.494L10.644 26.198L11.58 24.614L19.5 24.506L20.688 25.208ZM17.052 32.192L17.034 30.536L14.352 30.572L14.46 32.084L17.052 32.192ZM32.7895 24.632L33.5995 25.388L33.5095 34.19L32.8075 34.982L30.3775 34.91L30.1615 28.646L29.2975 28.484L28.7755 34.262L26.3095 33.866L26.0755 28.61L25.2835 28.664L24.8695 34.982L21.5395 34.946L21.7015 24.488L23.9335 24.506L24.2215 25.064L24.5095 24.776L26.7235 24.542L27.7135 25.604L28.8475 24.596L32.7895 24.632ZM44.331 25.19L44.349 34.064L43.593 34.964L38.013 34.892L37.905 39.068L34.143 39.626L34.233 24.65L36.519 24.596L36.861 25.082L37.203 24.848L43.593 24.488L44.331 25.19ZM40.569 27.836L38.193 27.602L38.103 32.156L40.551 31.958L40.569 27.836ZM44.9008 34.964L44.9908 24.47H48.8968L48.4108 34.784L44.9008 34.964ZM47.9248 24.11L45.9628 24.146L45.0628 23.534L45.1528 20.618H48.5548L49.0048 21.104L48.6088 23.552L47.9248 24.11Z" fill="#34B9F9"/>
<path d="M58.6689 20.6L59.5149 21.518L59.3889 33.686L58.7229 34.964L50.6409 35.018L49.4529 34.316L49.3629 21.554L49.9389 20.654L58.6689 20.6ZM53.1429 23.624L53.2509 31.94L55.6809 32.102L55.7169 23.84L53.1429 23.624ZM66.9264 20.852L70.9584 20.672L70.4364 34.856L67.2144 34.982L63.9024 27.962L63.6504 34.64L60.0504 35L60.1584 20.69H64.0464L66.8904 26.702L66.9264 20.852Z" fill="#FFDC5C"/>
<path d="M80.0642 21.32L81.4322 23.138L81.1262 33.164L79.7222 34.82L71.2082 35.018L71.3162 20.6L80.0642 21.32ZM75.0062 24.092L75.1502 32.084L77.6522 31.526L77.7782 24.884L75.0062 24.092ZM88.4679 31.778L91.7619 31.994L91.9419 33.29L91.0059 34.874L83.0859 34.982L81.8979 34.28L81.8079 25.622L82.9239 24.452L90.7179 24.614L92.0679 25.532L91.7439 30.482L90.6819 31.202L85.6599 31.058L85.6059 32.264L88.1619 32.426L88.4679 31.778ZM88.2339 29.222L88.1259 27.404L85.5339 27.296L85.5519 28.988L88.2339 29.222ZM101.456 31.652L101.87 35.072H92.6184L92.7444 20.618L96.5964 20.852L96.3984 31.598L101.456 31.652ZM109.069 31.778L112.363 31.994L112.543 33.29L111.607 34.874L103.687 34.982L102.499 34.28L102.409 25.622L103.525 24.452L111.319 24.614L112.669 25.532L112.345 30.482L111.283 31.202L106.261 31.058L106.207 32.264L108.763 32.426L109.069 31.778ZM108.835 29.222L108.727 27.404L106.135 27.296L106.153 28.988L108.835 29.222ZM123.48 20.618L123.588 35.018L121.392 35.036L121.068 34.532L120.69 34.91L114.732 35.018L113.436 33.614L113.22 25.91L114.336 24.488L119.718 25.136L119.826 20.816L123.48 20.618ZM119.7 31.958L119.664 28.196L117.252 27.926L117.054 31.868L119.7 31.958Z" fill="#34B9F9"/>
</svg>
